<?xml version="1.0" encoding="utf-8"?>
<!-- Generator: Adobe Illustrator 19.0.0, SVG Export Plug-In . SVG Version: 6.00 Build 0)  -->
<svg version="1.1" id="Layer_1" xmlns="http://www.w3.org/2000/svg" xmlns:xlink="http://www.w3.org/1999/xlink" x="0px" y="0px"
	 viewBox="-125 127 48 48" style="enable-background:new -125 127 48 48;" xml:space="preserve">
<style type="text/css">
	.st0{fill:#141823;}
</style>
<g>
	<path class="st0" d="M-101.2,129.4c-12,0-21.7,9.7-21.7,21.7c0,12,9.7,21.7,21.7,21.7s21.7-9.7,21.7-21.7
		C-79.5,139.2-89.2,129.4-101.2,129.4z M-101.2,171.9c-11.4,0-20.7-9.3-20.7-20.7c0-11.4,9.3-20.7,20.7-20.7
		c11.4,0,20.7,9.3,20.7,20.7S-89.8,171.9-101.2,171.9z"/>
	<path class="st0" d="M-86.2,150.6H-88c-0.1-3-1.2-5.8-3.1-8.1l2.3-4.1c0.1-0.2,0.1-0.5-0.1-0.6c-0.2-0.2-0.4-0.2-0.6-0.1l-3.9,2.6
		c-2.1-1.5-4.6-2.4-7.2-2.5v-1.8c0-0.3-0.2-0.5-0.5-0.5c-0.3,0-0.5,0.2-0.5,0.5v1.8c-6.9,0.3-12.4,5.8-12.7,12.7h-1.8
		c-0.3,0-0.5,0.2-0.5,0.5s0.2,0.5,0.5,0.5h1.8c0.1,2.9,1.2,5.7,3.1,8l-2.2,4c-0.1,0.2-0.1,0.5,0.1,0.6c0.1,0.1,0.2,0.1,0.3,0.1
		c0.1,0,0.2,0,0.3-0.1l3.8-2.5c2.1,1.6,4.6,2.4,7.3,2.5v1.8c0,0.3,0.2,0.5,0.5,0.5c0.3,0,0.5-0.2,0.5-0.5v-1.8
		c6.9-0.3,12.4-5.8,12.7-12.7h1.8c0.3,0,0.5-0.2,0.5-0.5S-85.9,150.6-86.2,150.6z M-98.3,153.3l-0.5-0.5l-0.9-0.9
		c0.1-0.2,0.2-0.5,0.2-0.8c0-1-0.8-1.8-1.8-1.8c-0.3,0-0.5,0.1-0.8,0.2l-1.5-1.5l10.1-6.6c0,0,0,0,0,0l2.5-1.6L-98.3,153.3z
		 M-101.9,151l0.8,0.9c0,0-0.1,0-0.1,0c-0.4,0-0.8-0.3-0.8-0.8C-102,151.1-101.9,151.1-101.9,151z M-101.2,150.4
		c0.4,0,0.7,0.3,0.7,0.7L-101.2,150.4z M-113.4,151.1c0-6.7,5.5-12.2,12.2-12.2c2.4,0,4.8,0.7,6.8,2.1l-10,6.6c0,0,0,0,0,0
		c0,0,0,0-0.1,0.1c0,0-0.1,0.1-0.1,0.1c0,0,0,0,0,0l-6.1,11C-112.5,156.6-113.4,153.9-113.4,151.1z M-104.1,148.8l1.4,1.4
		c-0.2,0.3-0.3,0.6-0.3,0.9c0,1,0.8,1.8,1.8,1.8c0.3,0,0.6-0.1,0.9-0.2l1.3,1.4l-12.7,8.3L-104.1,148.8z M-101.2,163.4
		c-2.5,0-4.9-0.7-6.9-2.1l10.2-6.6c0,0,0,0,0,0c0,0,0,0,0,0c0,0,0.1-0.1,0.1-0.1c0,0,0,0,0,0l6.1-10.9c1.7,2.2,2.7,4.8,2.7,7.6
		C-89,157.9-94.5,163.4-101.2,163.4z"/>
</g>
</svg>
