<?xml version="1.0" encoding="utf-8"?>
<!-- Generator: Adobe Illustrator 19.0.0, SVG Export Plug-In . SVG Version: 6.00 Build 0)  -->
<svg version="1.1" id="Layer_1" xmlns:sketch="http://www.bohemiancoding.com/sketch/ns"
	 xmlns="http://www.w3.org/2000/svg" xmlns:xlink="http://www.w3.org/1999/xlink" x="0px" y="0px" viewBox="-117 119 64 64"
	 style="enable-background:new -117 119 64 64;" xml:space="preserve">
<style type="text/css">
	.st0{fill:none;stroke:#141823;}
</style>
<title>Globe-pin-location</title>
<desc>Created with Sketch.</desc>
<g id="Page-1" sketch:type="MSPage">
	<g id="Globe-pin-location" transform="translate(1.000000, 1.000000)" sketch:type="MSLayerGroup">
		<g id="Group" sketch:type="MSShapeGroup">
			<circle id="Oval" class="st0" cx="-86" cy="150" r="31"/>
			<path id="Shape" class="st0" d="M-84.9,119.2c0,0-2.1,1.8-3.1,2.8s-3,1-2,2s1,2,1,2l-1,1c0,0,0,1-2,2s-2,0-3,1s-1,1-2,1s-1,1-2,1
				s0-4,0-4l2-1l2-1h1c0,0,0-2-1-2h-1c0,0,0-1-1-2l-1-1"/>
			<path id="Shape_1_" class="st0" d="M-106.6,127.2l1.6,5.8l-1,2c0,0-2,0-2,2s-1,0,0,2s0,3,0,3v1v2h-3c0,0,0,0-1,0s-1,0-2,1
				s-1,1-1,2v1l-2,3"/>
			<path id="Shape_2_" class="st0" d="M-116.4,155.2c1,1,4.4,0.8,4.4,0.8s2-1,3,0s1,3,1,3v1c0,0,2,3,3,3h1c0,0,1,1,2,1s2,1,2,1
				s1,3,0,3s-1,1-1,1s0,4,2,5s4,2,5,3s2,0,2,1s2,3,6,3"/>
			<path id="Shape_3_" class="st0" d="M-77,137c0-1,1-3,2-3h2l4-4c0,0-4-1-4-2s0-2,1-3s3-1,3-1"/>
			<path id="Shape_4_" class="st0" d="M-55,153c0,0-3-3-3-2s-1,2-1,4s-1,5-1,5l-2-2l1-5l-3-3h-2c0,0,1,2,1,3v4c0,0-2,4-2,5s-1,0-2,2
				s-2,2-3,4s-3,3-4,5s-2,1-2,0s-2-3-1-4s0-2,1-3s2-1,1-2s-2-1-2-2v-4c0,0-2-3-3-2s-2,2-2,2l-4-3l2.6-7"/>
		</g>
		<path id="Shape_5_" sketch:type="MSShapeGroup" class="st0" d="M-77,138.1c0,3.9-4.6,11.9-6,11.9s-6-8-6-11.9c0-3.4,2.7-6.1,6-6.1
			S-77,134.7-77,138.1L-77,138.1z"/>
		<circle id="Oval_1_" sketch:type="MSShapeGroup" class="st0" cx="-83" cy="138" r="1">
		</circle>
	</g>
</g>
</svg>
