<?xml version="1.0" ?><svg enable-background="new 0 0 100 100" id="Livello_1" version="1.1" viewBox="0 0 100 100" xml:space="preserve" xmlns="http://www.w3.org/2000/svg" xmlns:xlink="http://www.w3.org/1999/xlink"><path d="M57.331,48.609v2.781c0,0.276,0.224,0.5,0.5,0.5h5.188v5.188c0,0.276,0.224,0.5,0.5,0.5h2.907c0.276,0,0.5-0.224,0.5-0.5  v-5.188h5.188c0.276,0,0.5-0.224,0.5-0.5v-2.781c0-0.276-0.224-0.5-0.5-0.5h-5.188v-5.188c0-0.276-0.224-0.5-0.5-0.5h-2.907  c-0.276,0-0.5,0.224-0.5,0.5v5.188h-5.188C57.554,48.109,57.331,48.333,57.331,48.609z M58.331,49.109h5.188  c0.276,0,0.5-0.224,0.5-0.5v-5.188h1.907v5.188c0,0.276,0.224,0.5,0.5,0.5h5.188v1.781h-5.188c-0.276,0-0.5,0.224-0.5,0.5v5.188  h-1.907v-5.188c0-0.276-0.224-0.5-0.5-0.5h-5.188V49.109z"/><path d="M41.325,72.115c7.647,0,15.774-3.939,15.774-11.238c0-4.164-2.431-6.179-5.005-8.313c-0.005-0.004-0.011-0.009-0.016-0.013  l-2.087-1.595c-0.6-0.486-1.281-1.037-1.281-2.023c0-0.988,0.666-1.641,1.371-2.333l0.043-0.047c2.237-1.729,5.02-3.88,5.02-8.433  c0-3.523-1.695-5.661-3.087-6.958h2.054c0.092,0,0.182-0.025,0.261-0.073l3.72-2.275c0.191-0.117,0.281-0.347,0.221-0.562  c-0.061-0.216-0.257-0.365-0.481-0.365l-11.979-0.002c-3.293,0-7.505,0.352-10.89,3.1c-3.006,2.549-3.455,6.203-3.455,8.154  c0,4.55,3.518,9.386,10.037,9.386c0.338,0,0.695-0.019,1.064-0.046c-0.168,0.454-0.3,0.964-0.3,1.642  c0,1.492,0.597,2.532,1.251,3.412c-2.713,0.195-7,0.644-10.252,2.608c-4.335,2.535-4.672,6.258-4.672,7.339  C28.637,67.778,32.56,72.115,41.325,72.115z M33.82,57c3.385-2.045,8.074-2.356,10.593-2.523l0.155-0.01  c0.186-0.013,0.349-0.126,0.424-0.296s0.05-0.367-0.065-0.513l-0.109-0.138c-0.741-0.934-1.508-1.898-1.508-3.399  c0-0.763,0.198-1.226,0.449-1.811l0.087-0.203c0.068-0.162,0.021-0.345-0.082-0.487c-0.094-0.129-0.265-0.203-0.427-0.203  c-0.016,0-0.031,0-0.045,0.002c-0.621,0.055-1.207,0.106-1.746,0.106c-5.87,0-9.037-4.32-9.037-8.386  c0-1.778,0.403-5.104,3.094-7.385c3.132-2.543,7.124-2.87,10.251-2.87l10.203,0.002l-2.085,1.275h-3.265  c-0.211,0-0.375,0.153-0.446,0.353c-0.071,0.2,0.016,0.442,0.18,0.576c1.295,1.054,3.705,3.016,3.705,7.03  c0,4.062-2.46,5.963-4.676,7.681l-0.087,0.085c-0.744,0.73-1.671,1.639-1.671,3.047c0,1.464,0.994,2.269,1.689,2.832l2.063,1.575  c2.488,2.063,4.636,3.848,4.636,7.538c0,4.963-5.178,10.238-14.774,10.238c-8.627,0-11.688-4.114-11.688-7.636  C29.637,62.533,29.938,59.27,33.82,57z"/><path d="M44.298,69.699c5.435,0,8.947-2.596,8.947-6.613c0-3.201-2.222-4.904-6.479-7.884c-0.066-0.046-0.143-0.076-0.224-0.086  c-0.489-0.062-0.806-0.062-1.38-0.062c-0.034,0-3.477,0.04-6.204,0.937c-3.498,1.253-5.272,3.373-5.272,6.3  C33.685,66.722,37.95,69.699,44.298,69.699z M39.282,56.937c2.569-0.845,5.848-0.883,5.879-0.883c0.513,0,0.774,0,1.133,0.04  c4.316,3.024,5.95,4.428,5.95,6.993c0,3.462-3.045,5.613-7.947,5.613c-5.75,0-9.613-2.575-9.613-6.408  C34.685,58.583,38.154,57.34,39.282,56.937z"/><path d="M50.089,40.865c0-4.461-2.755-10.916-7.737-10.916c-1.762,0-3.453,0.732-4.412,1.909c-1.136,1.385-1.375,3.292-1.375,4.649  c0,4.434,2.67,10.575,7.683,10.575c1.626,0,3.31-0.939,4.258-1.871C49.925,43.809,50.089,42.059,50.089,40.865z M44.248,46.083  c-4.723,0-6.683-6.236-6.683-9.575c0-1.193,0.199-2.858,1.149-4.016c0.763-0.937,2.19-1.542,3.637-1.542  c4.338,0,6.737,5.863,6.737,9.916c0,1.015-0.133,2.496-1.286,3.634C47.002,45.287,45.591,46.083,44.248,46.083z"/><path d="M21.858,84.642h56.284c3.584,0,6.5-2.916,6.5-6.5V21.858c0-3.584-2.916-6.5-6.5-6.5H21.858c-3.584,0-6.5,2.916-6.5,6.5  v56.284C15.358,81.726,18.274,84.642,21.858,84.642z M16.358,21.858c0-3.033,2.467-5.5,5.5-5.5h56.284c3.033,0,5.5,2.467,5.5,5.5  v56.284c0,3.033-2.467,5.5-5.5,5.5H21.858c-3.033,0-5.5-2.467-5.5-5.5V21.858z"/></svg>
