<?xml version="1.0" ?><svg enable-background="new 0 0 100 100" id="Livello_1" version="1.1" viewBox="0 0 100 100" xml:space="preserve" xmlns="http://www.w3.org/2000/svg" xmlns:xlink="http://www.w3.org/1999/xlink"><path d="M21.858,84.642h56.283c3.584,0,6.5-2.916,6.5-6.5V21.858c0-3.584-2.916-6.5-6.5-6.5H21.858c-3.584,0-6.5,2.916-6.5,6.5  v56.284C15.358,81.726,18.274,84.642,21.858,84.642z M16.358,21.858c0-3.033,2.468-5.5,5.5-5.5h56.283c3.032,0,5.5,2.467,5.5,5.5  v56.284c0,3.033-2.468,5.5-5.5,5.5H21.858c-3.032,0-5.5-2.467-5.5-5.5V21.858z"/><path d="M35.61,54.622c1.162,0,2.107-0.945,2.107-2.107c0-1.162-0.945-2.107-2.107-2.107s-2.107,0.945-2.107,2.107  C33.503,53.676,34.448,54.622,35.61,54.622z M35.61,51.407c0.61,0,1.107,0.497,1.107,1.107c0,0.611-0.497,1.107-1.107,1.107  s-1.107-0.497-1.107-1.107C34.503,51.904,35,51.407,35.61,51.407z"/><path d="M64.222,54.59c1.161,0,2.106-0.945,2.106-2.107s-0.945-2.107-2.106-2.107c-1.162,0-2.107,0.945-2.107,2.107  S63.06,54.59,64.222,54.59z M64.222,51.375c0.61,0,1.106,0.497,1.106,1.107s-0.496,1.107-1.106,1.107s-1.107-0.497-1.107-1.107  S63.611,51.375,64.222,51.375z"/><path d="M35.775,62.719c5.607,0,10.169-4.562,10.169-10.169c0-5.606-4.562-10.168-10.169-10.168s-10.169,4.562-10.169,10.168  C25.606,58.157,30.168,62.719,35.775,62.719z M35.775,43.381c5.056,0,9.169,4.113,9.169,9.168c0,5.056-4.113,9.169-9.169,9.169  s-9.169-4.113-9.169-9.169C26.606,47.494,30.72,43.381,35.775,43.381z"/><path d="M64.221,62.651c5.607,0,10.169-4.562,10.169-10.169c0-5.606-4.562-10.168-10.169-10.168s-10.169,4.562-10.169,10.168  C54.052,58.09,58.613,62.651,64.221,62.651z M64.221,43.314c5.056,0,9.169,4.113,9.169,9.168c0,5.056-4.113,9.169-9.169,9.169  s-9.169-4.113-9.169-9.169C55.052,47.427,59.165,43.314,64.221,43.314z"/><path d="M23.738,44.078c-1.76,2.492-2.688,5.417-2.688,8.471c0,8.121,6.605,14.727,14.726,14.727c4.233,0,8.209-1.796,11.008-4.95  l2.81,3.947c0.094,0.131,0.245,0.21,0.406,0.21c0.001,0,0.001,0,0.001,0c0.161,0,0.312-0.078,0.406-0.209l2.819-3.937  c2.798,3.146,6.771,4.938,11,4.938c8.12,0,14.726-6.606,14.726-14.727c0-3.052-0.929-5.975-2.689-8.467  c0.33-1.62,1.415-3.739,2.691-5.233c0.127-0.148,0.156-0.357,0.074-0.534s-0.259-0.291-0.454-0.291h-9.355  c-5.146-3.419-11.963-5.301-19.214-5.301c-7.436,0-14.595,1.93-19.673,5.301h-8.904c-0.195,0-0.372,0.113-0.454,0.291  s-0.053,0.386,0.074,0.534C22.321,40.341,23.406,42.458,23.738,44.078z M30.482,39.024c0.1,0,0.196-0.03,0.279-0.085  c4.925-3.315,11.938-5.216,19.242-5.216c7.114,0,13.785,1.852,18.783,5.216c0.083,0.055,0.18,0.085,0.279,0.085h8.481  c-1.144,1.591-2.053,3.568-2.31,5.093c-0.022,0.132,0.01,0.269,0.089,0.377c1.717,2.358,2.624,5.143,2.624,8.054  c0,7.569-6.157,13.727-13.726,13.727c-4.145,0-8.025-1.846-10.646-5.066c-0.095-0.117-0.237-0.184-0.388-0.184  c-0.005,0-0.011,0-0.016,0c-0.155,0.005-0.3,0.082-0.391,0.209l-2.784,3.888l-2.775-3.899c-0.091-0.127-0.235-0.205-0.392-0.209  c-0.174-0.021-0.306,0.063-0.403,0.184c-2.623,3.227-6.507,5.078-10.655,5.078c-7.568,0-13.726-6.158-13.726-13.727  c0-2.915,0.907-5.701,2.623-8.059c0.079-0.109,0.111-0.245,0.089-0.378c-0.259-1.525-1.168-3.5-2.31-5.088H30.482z"/></svg>
